<svg xmlns="http://www.w3.org/2000/svg" width="23.757" height="24" viewBox="0 0 23.757 24">
  <g id="header-logo" transform="translate(-0.574 -0.081)">
    <path id="Caminho_1" data-name="Caminho 1" d="M15.31,12.081a2.857,2.857,0,1,1-2.857-2.857A2.857,2.857,0,0,1,15.31,12.081Z" fill="#212121"/>
    <path id="Caminho_2" data-name="Caminho 2" d="M12.453,24.081A12,12,0,0,0,24.331,13.795H17.3a5.145,5.145,0,0,1-9.7,0H.574A12,12,0,0,0,12.453,24.081ZM7.6,10.366H.574a12,12,0,0,1,23.757,0H17.3a5.145,5.145,0,0,0-9.7,0Zm7.707,1.714a2.857,2.857,0,1,1-2.857-2.857A2.857,2.857,0,0,1,15.31,12.081Z" fill="#212121" fill-rule="evenodd"/>
  </g>
</svg>
