<svg xmlns="http://www.w3.org/2000/svg" width="16" height="16" viewBox="0 0 16 16">
  <path id="icon-weigth" d="M14.453,2.081H12.427a4.95,4.95,0,0,0-7.949,0H2.453a2,2,0,0,0-2,2v10a2,2,0,0,0,2,2h12a2,2,0,0,0,2-2v-10A2,2,0,0,0,14.453,2.081Zm-6-1a4,4,0,1,1-4,4A4,4,0,0,1,8.453,1.081Zm7,13a1,1,0,0,1-1,1h-12a1,1,0,0,1-1-1v-10a1,1,0,0,1,1-1H3.876a5,5,0,1,0,9.153,0h1.424a1,1,0,0,1,1,1Zm-7-6a1.5,1.5,0,0,0,1.014-2.6l.945-2.205a.5.5,0,1,0-.919-.393L8.547,5.09a1.5,1.5,0,1,0-.095,2.99Zm0-2a.5.5,0,1,1-.5.5A.5.5,0,0,1,8.453,6.081Z" transform="translate(-0.453 -0.081)" fill="#212121"/>
</svg>
