<svg xmlns="http://www.w3.org/2000/svg" width="205.894" height="208" viewBox="0 0 205.894 208">
  <g id="pokemon-background-img" transform="translate(-0.053 -0.081)" opacity="0.1">
    <path id="Caminho_3" data-name="Caminho 3" d="M127.762,104.081A24.762,24.762,0,1,1,103,79.319,24.761,24.761,0,0,1,127.762,104.081Z" fill="#fff"/>
    <path id="Caminho_4" data-name="Caminho 4" d="M103,208.081a104.023,104.023,0,0,0,102.947-89.143H145.035a44.59,44.59,0,0,1-84.07,0H.053A104.023,104.023,0,0,0,103,208.081ZM60.965,89.223H.053a104.016,104.016,0,0,1,205.894,0H145.035a44.589,44.589,0,0,0-84.07,0Zm66.8,14.858A24.762,24.762,0,1,1,103,79.319,24.761,24.761,0,0,1,127.762,104.081Z" fill="#fff" fill-rule="evenodd"/>
  </g>
</svg>
